<?xml version="1.0" standalone="no"?>
<svg xmlns:xlink="http://www.w3.org/1999/xlink" id="wave" style="transform:rotate(0deg); transition: 0.3s" viewBox="0 0 1440 100" version="1.1" xmlns="http://www.w3.org/2000/svg"><defs><linearGradient id="sw-gradient-0" x1="0" x2="0" y1="1" y2="0"><stop stop-color="rgba(13, 14, 16, 1)" offset="0%"/><stop stop-color="rgba(13, 14, 16, 1)" offset="100%"/></linearGradient></defs><path style="transform:translate(0, 0px); opacity:1" fill="url(#sw-gradient-0)" d="M0,70L40,61.7C80,53,160,37,240,25C320,13,400,7,480,11.7C560,17,640,33,720,48.3C800,63,880,77,960,78.3C1040,80,1120,70,1200,63.3C1280,57,1360,53,1440,46.7C1520,40,1600,30,1680,21.7C1760,13,1840,7,1920,6.7C2000,7,2080,13,2160,23.3C2240,33,2320,47,2400,53.3C2480,60,2560,60,2640,51.7C2720,43,2800,27,2880,20C2960,13,3040,17,3120,21.7C3200,27,3280,33,3360,38.3C3440,43,3520,47,3600,51.7C3680,57,3760,63,3840,60C3920,57,4000,43,4080,40C4160,37,4240,43,4320,40C4400,37,4480,23,4560,16.7C4640,10,4720,10,4800,10C4880,10,4960,10,5040,16.7C5120,23,5200,37,5280,41.7C5360,47,5440,43,5520,40C5600,37,5680,33,5720,31.7L5760,30L5760,100L5720,100C5680,100,5600,100,5520,100C5440,100,5360,100,5280,100C5200,100,5120,100,5040,100C4960,100,4880,100,4800,100C4720,100,4640,100,4560,100C4480,100,4400,100,4320,100C4240,100,4160,100,4080,100C4000,100,3920,100,3840,100C3760,100,3680,100,3600,100C3520,100,3440,100,3360,100C3280,100,3200,100,3120,100C3040,100,2960,100,2880,100C2800,100,2720,100,2640,100C2560,100,2480,100,2400,100C2320,100,2240,100,2160,100C2080,100,2000,100,1920,100C1840,100,1760,100,1680,100C1600,100,1520,100,1440,100C1360,100,1280,100,1200,100C1120,100,1040,100,960,100C880,100,800,100,720,100C640,100,560,100,480,100C400,100,320,100,240,100C160,100,80,100,40,100L0,100Z"/></svg>